<svg width="23" height="23" viewBox="0 0 23 23" fill="none" xmlns="http://www.w3.org/2000/svg">
<path d="M11.5 0C5.14877 0 0 5.14886 0 11.5C0 17.8516 5.14886 23 11.5 23C17.8517 23 23 17.8516 23 11.5C23 5.1493 17.8517 0.000628906 11.4998 0.000628906L11.4999 8.98438e-05L11.5 0ZM16.7737 16.5864C16.5677 16.9242 16.1255 17.0313 15.7877 16.824C13.0876 15.1747 9.68866 14.8011 5.68567 15.7157C5.50031 15.7579 5.30577 15.7248 5.14485 15.6236C4.98392 15.5224 4.86977 15.3614 4.82748 15.176C4.80642 15.0843 4.80365 14.9893 4.81935 14.8965C4.83505 14.8036 4.86891 14.7148 4.91898 14.6351C4.96905 14.5554 5.03436 14.4863 5.11116 14.4319C5.18796 14.3774 5.27474 14.3386 5.36655 14.3178C9.74733 13.3169 13.5049 13.7478 16.5362 15.6004C16.874 15.8077 16.9811 16.2486 16.7737 16.5864ZM18.1813 13.4551C17.9217 13.8769 17.3697 14.0101 16.9481 13.7506C13.857 11.8506 9.14493 11.3003 5.48873 12.4101C5.01454 12.5533 4.51375 12.2861 4.36982 11.8127C4.22697 11.3386 4.49434 10.8387 4.96773 10.6946C9.14412 9.42722 14.3362 10.0411 17.8861 12.2225C18.3076 12.4822 18.4409 13.0342 18.1813 13.4552V13.4551ZM18.3022 10.1944C14.5957 7.99286 8.48071 7.79035 4.94204 8.86452C4.37377 9.03684 3.77281 8.71601 3.60067 8.14775C3.42844 7.57922 3.74891 6.9787 4.31762 6.80593C8.37973 5.57274 15.1327 5.81109 19.3999 8.34433C19.9122 8.64764 20.0796 9.30781 19.7761 9.81821C19.4741 10.3294 18.8121 10.4979 18.3027 10.1944H18.3022V10.1944Z" fill="#1ED760"/>
</svg>
