<svg width="45" height="45" viewBox="0 0 45 45" fill="none" xmlns="http://www.w3.org/2000/svg">
<path d="M28.4766 14.0625C28.4766 13.7828 28.5877 13.5145 28.7855 13.3167C28.9833 13.1189 29.2515 13.0078 29.5312 13.0078H40.7812C41.061 13.0078 41.3292 13.1189 41.527 13.3167C41.7248 13.5145 41.8359 13.7828 41.8359 14.0625C41.8359 14.3422 41.7248 14.6105 41.527 14.8083C41.3292 15.0061 41.061 15.1172 40.7812 15.1172H29.5312C29.2515 15.1172 28.9833 15.0061 28.7855 14.8083C28.5877 14.6105 28.4766 14.3422 28.4766 14.0625ZM43.2422 26.7188C43.2422 26.9985 43.1311 27.2667 42.9333 27.4645C42.7355 27.6623 42.4672 27.7734 42.1875 27.7734H29.2676C29.5184 29.1531 30.245 30.4011 31.3209 31.3004C32.3969 32.1996 33.754 32.6933 35.1562 32.6953C35.9414 32.7002 36.7195 32.5471 37.4443 32.2452C38.169 31.9432 38.8256 31.4985 39.375 30.9375C39.5751 30.7431 39.8431 30.6344 40.1221 30.6344C40.401 30.6344 40.669 30.7431 40.8691 30.9375C40.9696 31.0343 41.0496 31.1503 41.1041 31.2787C41.1587 31.407 41.1869 31.5451 41.1869 31.6846C41.1869 31.8241 41.1587 31.9621 41.1041 32.0905C41.0496 32.2189 40.9696 32.3349 40.8691 32.4316C39.5452 33.7534 37.8038 34.5752 35.9418 34.757C34.0798 34.9387 32.2124 34.4692 30.6578 33.4284C29.1032 32.3876 27.9576 30.8399 27.4163 29.0491C26.8749 27.2583 26.9713 25.3352 27.6889 23.6075C28.4066 21.8798 29.7011 20.4543 31.352 19.5742C33.0029 18.694 34.9078 18.4135 36.7423 18.7804C38.5768 19.1474 40.2273 20.1392 41.4126 21.5867C42.5978 23.0342 43.2444 24.8479 43.2422 26.7188ZM41.0449 25.6641C40.8043 24.2768 40.0817 23.0189 39.0044 22.1124C37.9271 21.2058 36.5643 20.7087 35.1562 20.7087C33.7482 20.7087 32.3854 21.2058 31.3081 22.1124C30.2308 23.0189 29.5082 24.2768 29.2676 25.6641H41.0449ZM24.2578 27.7734C24.2578 29.6382 23.517 31.4267 22.1984 32.7453C20.8798 34.0639 19.0914 34.8047 17.2266 34.8047H5.625C5.34528 34.8047 5.07702 34.6936 4.87922 34.4958C4.68143 34.298 4.57031 34.0297 4.57031 33.75V11.25C4.57031 10.9703 4.68143 10.702 4.87922 10.5042C5.07702 10.3064 5.34528 10.1953 5.625 10.1953H15.1172C16.3827 10.1951 17.6191 10.5744 18.6669 11.2841C19.7146 11.9937 20.5256 13.0013 20.9949 14.1765C21.4642 15.3517 21.5704 16.6407 21.2998 17.8769C21.0291 19.1131 20.394 20.2397 19.4766 21.1113C20.8703 21.5821 22.0812 22.4781 22.9389 23.6732C23.7967 24.8683 24.2579 26.3024 24.2578 27.7734ZM6.67969 20.7422H15.1172C16.2361 20.7422 17.3091 20.2977 18.1003 19.5065C18.8915 18.7154 19.3359 17.6423 19.3359 16.5234C19.3359 15.4046 18.8915 14.3315 18.1003 13.5403C17.3091 12.7492 16.2361 12.3047 15.1172 12.3047H6.67969V20.7422ZM22.1484 27.7734C22.1438 26.4695 21.6238 25.2203 20.7017 24.2983C19.7797 23.3762 18.5305 22.8562 17.2266 22.8516H6.67969V32.6953H17.2266C18.5305 32.6907 19.7797 32.1706 20.7017 31.2486C21.6238 30.3266 22.1438 29.0774 22.1484 27.7734Z" fill="#262626"/>
</svg>
