<svg width="45" height="45" viewBox="0 0 45 45" fill="none" xmlns="http://www.w3.org/2000/svg">
<path d="M22.5 14.4141C20.9008 14.4141 19.3374 14.8883 18.0077 15.7768C16.678 16.6653 15.6416 17.9281 15.0296 19.4056C14.4176 20.8832 14.2574 22.509 14.5694 24.0775C14.8814 25.646 15.6515 27.0868 16.7824 28.2176C17.9132 29.3485 19.354 30.1186 20.9225 30.4306C22.491 30.7426 24.1168 30.5824 25.5944 29.9704C27.0719 29.3584 28.3347 28.322 29.2232 26.9923C30.1117 25.6626 30.5859 24.0992 30.5859 22.5C30.5859 20.3555 29.734 18.2988 28.2176 16.7824C26.7012 15.266 24.6445 14.4141 22.5 14.4141ZM22.5 28.4766C21.3179 28.4766 20.1624 28.126 19.1796 27.4693C18.1968 26.8126 17.4307 25.8792 16.9784 24.7871C16.526 23.6951 16.4077 22.4934 16.6383 21.334C16.8689 20.1747 17.4381 19.1098 18.2739 18.2739C19.1098 17.4381 20.1747 16.8689 21.334 16.6383C22.4934 16.4077 23.6951 16.526 24.7871 16.9784C25.8792 17.4307 26.8126 18.1968 27.4693 19.1796C28.126 20.1624 28.4766 21.3179 28.4766 22.5C28.4719 24.0837 27.8408 25.6011 26.7209 26.7209C25.6011 27.8408 24.0837 28.4719 22.5 28.4766ZM30.2344 5.27344H14.7656C12.2481 5.27344 9.83377 6.2735 8.05363 8.05363C6.2735 9.83377 5.27344 12.2481 5.27344 14.7656V30.2344C5.27344 32.7519 6.2735 35.1662 8.05363 36.9464C9.83377 38.7265 12.2481 39.7266 14.7656 39.7266H30.2344C32.7519 39.7266 35.1662 38.7265 36.9464 36.9464C38.7265 35.1662 39.7266 32.7519 39.7266 30.2344V14.7656C39.7266 12.2481 38.7265 9.83377 36.9464 8.05363C35.1662 6.2735 32.7519 5.27344 30.2344 5.27344ZM37.6172 30.2344C37.6172 32.1924 36.8394 34.0703 35.4548 35.4548C34.0703 36.8394 32.1924 37.6172 30.2344 37.6172H14.7656C12.8076 37.6172 10.9297 36.8394 9.54519 35.4548C8.16064 34.0703 7.38281 32.1924 7.38281 30.2344V14.7656C7.38281 12.8076 8.16064 10.9297 9.54519 9.54519C10.9297 8.16064 12.8076 7.38281 14.7656 7.38281H30.2344C32.1924 7.38281 34.0703 8.16064 35.4548 9.54519C36.8394 10.9297 37.6172 12.8076 37.6172 14.7656V30.2344ZM33.3984 13.3594C33.3984 13.707 33.2953 14.0469 33.1022 14.336C32.909 14.625 32.6345 14.8503 32.3133 14.9834C31.9921 15.1164 31.6387 15.1512 31.2977 15.0834C30.9567 15.0156 30.6435 14.8482 30.3977 14.6023C30.1518 14.3565 29.9844 14.0433 29.9166 13.7023C29.8488 13.3613 29.8836 13.0079 30.0166 12.6867C30.1497 12.3655 30.375 12.091 30.664 11.8978C30.9531 11.7047 31.293 11.6016 31.6406 11.6016C32.1068 11.6016 32.5539 11.7868 32.8836 12.1164C33.2132 12.4461 33.3984 12.8932 33.3984 13.3594Z" fill="#262626"/>
</svg>
