<svg width="45" height="45" viewBox="0 0 45 45" fill="none" xmlns="http://www.w3.org/2000/svg">
<path d="M16.5234 19.6875V30.9375C16.5234 31.2172 16.4123 31.4855 16.2145 31.6833C16.0167 31.8811 15.7485 31.9922 15.4688 31.9922C15.189 31.9922 14.9208 31.8811 14.723 31.6833C14.5252 31.4855 14.4141 31.2172 14.4141 30.9375V19.6875C14.4141 19.4078 14.5252 19.1395 14.723 18.9417C14.9208 18.7439 15.189 18.6328 15.4688 18.6328C15.7485 18.6328 16.0167 18.7439 16.2145 18.9417C16.4123 19.1395 16.5234 19.4078 16.5234 19.6875ZM15.4688 12.3047C15.1211 12.3047 14.7812 12.4078 14.4922 12.6009C14.2031 12.7941 13.9778 13.0686 13.8447 13.3898C13.7117 13.711 13.6769 14.0645 13.7447 14.4054C13.8125 14.7464 13.98 15.0596 14.2258 15.3055C14.4716 15.5513 14.7848 15.7187 15.1258 15.7865C15.4668 15.8544 15.8202 15.8196 16.1414 15.6865C16.4626 15.5535 16.7372 15.3282 16.9303 15.0391C17.1235 14.75 17.2266 14.4102 17.2266 14.0625C17.2266 13.5963 17.0414 13.1492 16.7117 12.8195C16.3821 12.4899 15.935 12.3047 15.4688 12.3047ZM39.7266 7.73438V37.2656C39.7266 37.9183 39.4673 38.5443 39.0058 39.0058C38.5443 39.4673 37.9183 39.7266 37.2656 39.7266H7.73438C7.08169 39.7266 6.45574 39.4673 5.99423 39.0058C5.53271 38.5443 5.27344 37.9183 5.27344 37.2656V7.73438C5.27344 7.08169 5.53271 6.45574 5.99423 5.99423C6.45574 5.53271 7.08169 5.27344 7.73438 5.27344H37.2656C37.9183 5.27344 38.5443 5.53271 39.0058 5.99423C39.4673 6.45574 39.7266 7.08169 39.7266 7.73438ZM37.6172 7.73438C37.6172 7.64113 37.5801 7.55171 37.5142 7.48578C37.4483 7.41985 37.3589 7.38281 37.2656 7.38281H7.73438C7.64113 7.38281 7.55171 7.41985 7.48578 7.48578C7.41985 7.55171 7.38281 7.64113 7.38281 7.73438V37.2656C7.38281 37.3589 7.41985 37.4483 7.48578 37.5142C7.55171 37.5801 7.64113 37.6172 7.73438 37.6172H37.2656C37.3589 37.6172 37.4483 37.5801 37.5142 37.5142C37.5801 37.4483 37.6172 37.3589 37.6172 37.2656V7.73438ZM26.0156 18.6328C24.5985 18.6339 23.2279 19.1386 22.1484 20.0566V19.6875C22.1484 19.4078 22.0373 19.1395 21.8395 18.9417C21.6417 18.7439 21.3735 18.6328 21.0938 18.6328C20.814 18.6328 20.5458 18.7439 20.348 18.9417C20.1502 19.1395 20.0391 19.4078 20.0391 19.6875V30.9375C20.0391 31.2172 20.1502 31.4855 20.348 31.6833C20.5458 31.8811 20.814 31.9922 21.0938 31.9922C21.3735 31.9922 21.6417 31.8811 21.8395 31.6833C22.0373 31.4855 22.1484 31.2172 22.1484 30.9375V24.6094C22.1484 23.5837 22.5559 22.6001 23.2811 21.8749C24.0063 21.1496 24.99 20.7422 26.0156 20.7422C27.0413 20.7422 28.0249 21.1496 28.7501 21.8749C29.4754 22.6001 29.8828 23.5837 29.8828 24.6094V30.9375C29.8828 31.2172 29.9939 31.4855 30.1917 31.6833C30.3895 31.8811 30.6578 31.9922 30.9375 31.9922C31.2172 31.9922 31.4855 31.8811 31.6833 31.6833C31.8811 31.4855 31.9922 31.2172 31.9922 30.9375V24.6094C31.9876 23.0257 31.3564 21.5082 30.2366 20.3884C29.1168 19.2686 27.5993 18.6375 26.0156 18.6328Z" fill="#262626"/>
</svg>
