<svg width="45" height="45" viewBox="0 0 45 45" fill="none" xmlns="http://www.w3.org/2000/svg">
<path d="M43.1544 12.2519C43.075 12.0605 42.9409 11.8968 42.769 11.7811C42.597 11.6654 42.3948 11.603 42.1876 11.6015H36.6329C35.9463 10.3405 34.9364 9.28505 33.7068 8.54361C32.4773 7.80217 31.0725 7.4015 29.6368 7.38277C27.4797 7.37339 25.4067 8.21894 23.8715 9.73435C22.3363 11.2498 21.464 13.3116 21.4454 15.4687V16.998C13.9923 15.2226 7.83994 9.15816 7.76962 9.10542C7.63411 8.97165 7.4649 8.87705 7.27996 8.83168C7.09502 8.78631 6.90125 8.79186 6.71921 8.84774C6.53717 8.90361 6.37365 9.00773 6.24601 9.14904C6.11836 9.29035 6.03136 9.46358 5.99423 9.65035C4.46493 18.0175 6.97861 23.6074 9.35165 26.8242C10.6103 28.5466 12.1563 30.0391 13.922 31.2363C11.1974 34.541 6.71493 36.2636 6.6622 36.2812C6.51244 36.3364 6.37742 36.4253 6.26766 36.5412C6.1579 36.657 6.07636 36.7967 6.02939 36.9492C5.97951 37.098 5.96466 37.2563 5.986 37.4118C6.00735 37.5673 6.0643 37.7158 6.15243 37.8457C6.32822 38.1093 8.05087 40.4296 14.0626 40.4296C26.3146 40.4296 36.5626 30.955 37.547 18.791L42.9259 13.3945C43.0783 13.2516 43.1823 13.0647 43.2233 12.8598C43.2643 12.655 43.2402 12.4424 43.1544 12.2519ZM35.7716 17.5781C35.5887 17.7605 35.4819 18.0055 35.4728 18.2636C34.7521 29.5136 25.3478 38.3203 14.0626 38.3203C11.6192 38.3203 10.0548 37.8984 9.12314 37.4765C11.1095 36.4746 14.3614 34.5058 16.3478 31.5175C16.4269 31.3937 16.4801 31.255 16.5043 31.11C16.5285 30.965 16.5231 30.8166 16.4884 30.6738C16.4509 30.5276 16.383 30.391 16.2891 30.2728C16.1952 30.1547 16.0774 30.0577 15.9435 29.9882C15.9083 29.9882 13.2716 28.6171 10.9864 25.4882C8.26181 21.7617 7.18954 17.2089 7.7872 11.9531C10.3536 14.1328 15.8907 18.2461 22.3243 19.3183C22.4757 19.3471 22.6317 19.3417 22.7808 19.3026C22.9299 19.2636 23.0684 19.1918 23.1862 19.0924C23.3041 18.9931 23.3983 18.8687 23.4621 18.7284C23.5258 18.5881 23.5575 18.4353 23.5548 18.2812V15.4687C23.5687 13.8757 24.2125 12.353 25.3455 11.2332C26.4785 10.1134 28.0086 9.48744 29.6017 9.49214C30.7527 9.50876 31.8748 9.85552 32.8345 10.4912C33.7943 11.1269 34.5513 12.0247 35.0157 13.0781C35.0959 13.2676 35.2307 13.4289 35.4028 13.5416C35.575 13.6543 35.7768 13.7132 35.9825 13.7109H39.6388L35.7716 17.5781Z" fill="#262626"/>
</svg>
