<?xml version="1.0" standalone="no"?>
<!DOCTYPE svg PUBLIC "-//W3C//DTD SVG 20010904//EN"
 "http://www.w3.org/TR/2001/REC-SVG-20010904/DTD/svg10.dtd">
<svg version="1.0" xmlns="http://www.w3.org/2000/svg"
 width="700.000000pt" height="700.000000pt" viewBox="0 0 700.000000 700.000000"
 preserveAspectRatio="xMidYMid meet">
<metadata>
Created by potrace 1.14, written by Peter Selinger 2001-2017
</metadata>
<g transform="translate(0.000000,700.000000) scale(0.100000,-0.100000)"
fill="#000000" stroke="none">
<path d="M730 6985 c-176 -36 -316 -107 -439 -221 -151 -139 -249 -324 -281
-524 -7 -43 -9 -974 -7 -2780 l3 -2715 20 -70 c92 -307 293 -527 568 -622 162
-56 -13 -53 2931 -50 1496 1 2729 5 2740 9 20 6 101 28 120 33 6 1 19 5 30 10
251 97 442 290 531 535 23 65 26 79 44 175 11 61 8 5457 -3 5500 -4 17 -12 48
-18 70 -62 249 -255 477 -493 585 -37 17 -111 41 -164 55 l-97 24 -2710 -1
c-2222 0 -2722 -2 -2775 -13z"/>
</g>
</svg>
