<?xml version="1.0" standalone="no"?>
<!DOCTYPE svg PUBLIC "-//W3C//DTD SVG 20010904//EN"
 "http://www.w3.org/TR/2001/REC-SVG-20010904/DTD/svg10.dtd">
<svg version="1.0" xmlns="http://www.w3.org/2000/svg"
 width="138.000000pt" height="138.000000pt" viewBox="0 0 138.000000 138.000000"
 preserveAspectRatio="xMidYMid meet">
<metadata>
Created by potrace 1.14, written by Peter Selinger 2001-2017
</metadata>
<g transform="translate(0.000000,138.000000) scale(0.100000,-0.100000)"
fill="#000000" stroke="none">
<path d="M388 1202 l-288 -167 0 -346 0 -346 296 -170 296 -171 227 131 c124
72 258 149 296 172 l70 41 0 344 0 344 -290 168 c-159 92 -297 167 -305 167
-8 0 -144 -75 -302 -167z m617 -64 l230 -133 3 -315 2 -315 -274 -158 -273
-157 -272 156 -271 156 0 317 0 317 271 157 272 156 41 -24 c23 -13 145 -84
271 -157z"/>
<path d="M347 960 c-9 -29 -17 -66 -17 -84 1 -74 69 -160 167 -209 26 -13 137
-64 245 -112 161 -71 204 -95 233 -126 19 -22 35 -45 35 -52 2 -36 33 56 37
107 4 51 1 69 -19 106 -38 70 -103 110 -347 217 -220 96 -264 123 -302 182
-15 24 -15 24 -32 -29z"/>
<path d="M867 949 l-88 -51 93 -54 c51 -29 96 -54 101 -54 4 0 7 47 7 105 0
77 -3 105 -12 105 -7 0 -53 -23 -101 -51z"/>
<path d="M390 479 l0 -110 63 36 c34 20 77 43 95 52 17 9 32 20 32 23 0 6
-176 110 -186 110 -2 0 -4 -50 -4 -111z"/>
</g>
</svg>
