<svg width="695" height="424" viewBox="0 0 695 424" fill="none" xmlns="http://www.w3.org/2000/svg">
<g clip-path="url(#clip0_898_346)">
<rect width="695" height="424" rx="10" fill="white"/>
<g filter="url(#filter0_dd_898_346)">
<rect width="695" height="424" rx="10" fill="#CBBFF9" fill-opacity="0.85" shape-rendering="crispEdges"/>
</g>
<g filter="url(#filter1_d_898_346)">
<path d="M348.123 159C345.925 159.013 343.821 159.893 342.268 161.448C340.715 163.003 339.838 165.108 339.828 167.306V171.2C334.657 172.33 329.91 174.898 326.134 178.608C320.734 184.07 317.71 191.808 317.71 200.708V222.308C317.71 227.391 314.934 233.836 312.073 238.617L307.116 246.068C306.837 246.485 306.677 246.969 306.652 247.47C306.627 247.97 306.738 248.468 306.975 248.91C307.211 249.353 307.563 249.722 307.993 249.98C308.423 250.237 308.915 250.373 309.416 250.373H334.298C334.298 254.039 335.755 257.556 338.347 260.148C340.94 262.741 344.456 264.197 348.122 264.197C351.789 264.197 355.305 262.741 357.898 260.148C360.49 257.556 361.947 254.039 361.947 250.373H386.83C387.331 250.374 387.824 250.238 388.254 249.98C388.684 249.723 389.036 249.353 389.272 248.911C389.509 248.469 389.62 247.971 389.595 247.47C389.57 246.969 389.409 246.484 389.13 246.068L384.196 238.65L384.185 238.639C381.285 233.805 378.536 227.769 378.536 222.686V201.086C378.536 186.227 369.702 174.719 356.418 171.302V167.31C356.409 165.111 355.532 163.005 353.979 161.449C352.426 159.893 350.321 159.013 348.123 159ZM348.123 164.538C348.487 164.537 348.847 164.608 349.183 164.747C349.519 164.886 349.824 165.09 350.081 165.347C350.338 165.604 350.541 165.91 350.68 166.246C350.818 166.582 350.889 166.942 350.888 167.306V170.388C350.272 170.335 349.668 170.27 349.041 170.247C348.746 170.142 348.436 170.083 348.123 170.075C347.823 170.075 347.527 170.129 347.247 170.237C346.6 170.247 345.984 170.313 345.358 170.356V167.305C345.357 166.941 345.427 166.581 345.566 166.245C345.704 165.909 345.908 165.604 346.165 165.346C346.422 165.089 346.727 164.886 347.063 164.747C347.399 164.608 347.759 164.537 348.123 164.538V164.538ZM288.623 168.626C282.327 179.096 279 191.083 279 203.3C279 215.517 282.327 227.504 288.623 237.974L293.343 235.074C287.576 225.478 284.529 214.494 284.529 203.298C284.529 192.103 287.576 181.119 293.343 171.523L288.623 168.626ZM407.617 168.626L402.898 171.526C408.664 181.122 411.71 192.106 411.71 203.301C411.71 214.497 408.664 225.481 402.898 235.077L407.617 237.977C413.913 227.507 417.24 215.52 417.24 203.303C417.24 191.086 413.913 179.099 407.617 168.629V168.626ZM348.117 175.612C363.355 175.612 373 185.768 373 201.082V222.682C373 229.636 376.326 236.298 379.436 241.5C379.465 241.534 379.491 241.57 379.512 241.609L381.651 244.831H314.588L316.727 241.609C316.748 241.57 316.774 241.534 316.803 241.5C319.945 236.255 323.24 229.258 323.24 222.3V200.7C323.24 193.042 325.767 186.845 330.066 182.508C334.365 178.171 340.488 175.612 348.123 175.612H348.117ZM300.607 176.001C295.48 184.181 292.78 193.647 292.821 203.301C292.894 212.925 295.578 222.348 300.585 230.567L305.327 227.712C300.839 220.355 298.428 211.919 298.35 203.301C298.288 194.674 300.702 186.21 305.305 178.913L300.607 176.001ZM395.626 176.001L390.926 178.911C395.529 186.208 397.943 194.672 397.881 203.299C397.805 211.919 395.39 220.356 390.894 227.71L395.646 230.565C400.654 222.346 403.338 212.923 403.411 203.299C403.454 193.647 400.756 184.181 395.632 176.002L395.626 176.001ZM339.828 250.373H356.418C356.418 252.573 355.544 254.683 353.988 256.238C352.433 257.794 350.323 258.668 348.123 258.668C345.923 258.668 343.813 257.794 342.258 256.238C340.702 254.683 339.828 252.573 339.828 250.373Z" fill="#736CED"/>
</g>
<circle cy="55" r="55" fill="#FFD65C"/>
<g filter="url(#filter2_b_898_346)">
<circle cx="695" cy="369" r="55" fill="#FFD65C"/>
</g>
</g>
<defs>
<filter id="filter0_dd_898_346" x="-16" y="-22" width="727" height="466" filterUnits="userSpaceOnUse" color-interpolation-filters="sRGB">
<feFlood flood-opacity="0" result="BackgroundImageFix"/>
<feColorMatrix in="SourceAlpha" type="matrix" values="0 0 0 0 0 0 0 0 0 0 0 0 0 0 0 0 0 0 127 0" result="hardAlpha"/>
<feOffset dy="4"/>
<feGaussianBlur stdDeviation="8"/>
<feComposite in2="hardAlpha" operator="out"/>
<feColorMatrix type="matrix" values="0 0 0 0 0.608333 0 0 0 0 0.608333 0 0 0 0 0.608333 0 0 0 0.13 0"/>
<feBlend mode="normal" in2="BackgroundImageFix" result="effect1_dropShadow_898_346"/>
<feColorMatrix in="SourceAlpha" type="matrix" values="0 0 0 0 0 0 0 0 0 0 0 0 0 0 0 0 0 0 127 0" result="hardAlpha"/>
<feOffset dy="-6"/>
<feGaussianBlur stdDeviation="8"/>
<feComposite in2="hardAlpha" operator="out"/>
<feColorMatrix type="matrix" values="0 0 0 0 0.608333 0 0 0 0 0.608333 0 0 0 0 0.608333 0 0 0 0.13 0"/>
<feBlend mode="normal" in2="effect1_dropShadow_898_346" result="effect2_dropShadow_898_346"/>
<feBlend mode="normal" in="SourceGraphic" in2="effect2_dropShadow_898_346" result="shape"/>
</filter>
<filter id="filter1_d_898_346" x="275" y="159" width="146.24" height="113.197" filterUnits="userSpaceOnUse" color-interpolation-filters="sRGB">
<feFlood flood-opacity="0" result="BackgroundImageFix"/>
<feColorMatrix in="SourceAlpha" type="matrix" values="0 0 0 0 0 0 0 0 0 0 0 0 0 0 0 0 0 0 127 0" result="hardAlpha"/>
<feOffset dy="4"/>
<feGaussianBlur stdDeviation="2"/>
<feComposite in2="hardAlpha" operator="out"/>
<feColorMatrix type="matrix" values="0 0 0 0 0 0 0 0 0 0 0 0 0 0 0 0 0 0 0.25 0"/>
<feBlend mode="normal" in2="BackgroundImageFix" result="effect1_dropShadow_898_346"/>
<feBlend mode="normal" in="SourceGraphic" in2="effect1_dropShadow_898_346" result="shape"/>
</filter>
<filter id="filter2_b_898_346" x="632" y="306" width="126" height="126" filterUnits="userSpaceOnUse" color-interpolation-filters="sRGB">
<feFlood flood-opacity="0" result="BackgroundImageFix"/>
<feGaussianBlur in="BackgroundImage" stdDeviation="4"/>
<feComposite in2="SourceAlpha" operator="in" result="effect1_backgroundBlur_898_346"/>
<feBlend mode="normal" in="SourceGraphic" in2="effect1_backgroundBlur_898_346" result="shape"/>
</filter>
<clipPath id="clip0_898_346">
<rect width="695" height="424" rx="10" fill="white"/>
</clipPath>
</defs>
</svg>
