<svg xmlns="http://www.w3.org/2000/svg" viewBox="0 0 119.07 137.49"><defs><style>.cls-1{fill:none;stroke:#000;stroke-miterlimit:10;stroke-width:5px;}</style></defs><g id="Layer_2" data-name="Layer 2"><g id="Artboard_2" data-name="Artboard 2"><path d="M91.93,100.66a22.76,22.76,0,0,0-12-11.91c-4.34-2-8.73-3.81-13.08-5.75C57.62,78.87,48.3,74.9,39.2,70.48a36.75,36.75,0,0,1-9.35-6.71C23.52,57.65,22.32,50.12,25,41.89c.55-1.66,1.3-3.25,2-5.06a8.63,8.63,0,0,1,.59.9c2.55,5.27,6.75,8.74,12,11.06,12.47,5.5,25,11,37.42,16.5a41.08,41.08,0,0,1,11,7c6.87,6.22,9,14.34,6,23.09C93.48,97,92.75,98.64,91.93,100.66Z"/><polygon class="cls-1" points="116.57 101.67 59.53 134.6 2.5 101.67 2.5 35.81 59.53 2.89 116.57 35.81 116.57 101.67"/><path d="M87.6,37V58.86l-19.09-11Z"/><path d="M29.81,100.43V78.54L48.88,89.48Z"/></g></g></svg>