<svg width="1724" height="1573" viewBox="0 0 1724 1573" fill="none" xmlns="http://www.w3.org/2000/svg">
<rect x="1" width="1722" height="1556" fill="#F4F7FC"/>
<path opacity="0.025641" d="M1 1219C186.323 1293.67 520.464 1443.56 874.021 1504C1201 1559.89 1546.03 1575 1723 1533" stroke="#7EAEFD"/>
<path opacity="0.0512821" d="M1 1204C186.323 1278.67 520.464 1428.56 874.021 1489C1201 1544.89 1546.03 1560 1723 1518" stroke="#7EAEFD"/>
<path opacity="0.0769231" d="M1 1189C186.323 1263.67 520.464 1413.56 874.021 1474C1201 1529.89 1546.03 1545 1723 1503" stroke="#7EAEFD"/>
<path opacity="0.102564" d="M1 1174C186.323 1248.67 520.464 1398.56 874.021 1459C1201 1514.89 1546.03 1530 1723 1488" stroke="#7EAEFD"/>
<path opacity="0.128205" d="M1 1159C186.323 1233.67 520.464 1383.56 874.021 1444C1201 1499.89 1546.03 1515 1723 1473" stroke="#7EAEFD"/>
<path opacity="0.153846" d="M1 1144C186.323 1218.67 520.464 1368.56 874.021 1429C1201 1484.89 1546.03 1500 1723 1458" stroke="#7EAEFD"/>
<path opacity="0.179487" d="M1 1129C186.323 1203.67 520.464 1353.56 874.021 1414C1201 1469.89 1546.03 1485 1723 1443" stroke="#7EAEFD"/>
<path opacity="0.205128" d="M1 1114C186.323 1188.67 520.464 1338.56 874.021 1399C1201 1454.89 1546.03 1470 1723 1428" stroke="#7EAEFD"/>
<path opacity="0.230769" d="M1 1099C186.323 1173.67 520.464 1323.56 874.021 1384C1201 1439.89 1546.03 1455 1723 1413" stroke="#7EAEFD"/>
<path opacity="0.25641" d="M1 1084C186.323 1158.67 520.464 1308.56 874.021 1369C1201 1424.89 1546.03 1440 1723 1398" stroke="#7EAEFD"/>
<path opacity="0.282051" d="M1 1069C186.323 1143.67 520.464 1293.56 874.021 1354C1201 1409.89 1546.03 1425 1723 1383" stroke="#7EAEFD"/>
<path opacity="0.307692" d="M1 1054C186.323 1128.67 520.464 1278.56 874.021 1339C1201 1394.89 1546.03 1410 1723 1368" stroke="#7EAEFD"/>
<path opacity="0.333333" d="M1 1039C186.323 1113.67 520.464 1263.56 874.021 1324C1201 1379.89 1546.03 1395 1723 1353" stroke="#7EAEFD"/>
<path opacity="0.358974" d="M1 1024C186.323 1098.67 520.464 1248.56 874.021 1309C1201 1364.89 1546.03 1380 1723 1338" stroke="#7EAEFD"/>
<path opacity="0.384615" d="M1 1009C186.323 1083.67 520.464 1233.56 874.021 1294C1201 1349.89 1546.03 1365 1723 1323" stroke="#7EAEFD"/>
<path opacity="0.410256" d="M1 994C186.323 1068.67 520.464 1218.56 874.021 1279C1201 1334.89 1546.03 1350 1723 1308" stroke="#7EAEFD"/>
<path opacity="0.435897" d="M1 979C186.323 1053.67 520.464 1203.56 874.021 1264C1201 1319.89 1546.03 1335 1723 1293" stroke="#7EAEFD"/>
<path opacity="0.461538" d="M1 964C186.323 1038.67 520.464 1188.56 874.021 1249C1201 1304.89 1546.03 1320 1723 1278" stroke="#7EAEFD"/>
<path opacity="0.487179" d="M1 949C186.323 1023.67 520.464 1173.56 874.021 1234C1201 1289.89 1546.03 1305 1723 1263" stroke="#7EAEFD"/>
<path opacity="0.512821" d="M1 934C186.323 1008.67 520.464 1158.56 874.021 1219C1201 1274.89 1546.03 1290 1723 1248" stroke="#7EAEFD"/>
<path opacity="0.538462" d="M1 919C186.323 993.667 520.464 1143.56 874.021 1204C1201 1259.89 1546.03 1275 1723 1233" stroke="#7EAEFD"/>
<path opacity="0.564103" d="M1 904C186.323 978.667 520.464 1128.56 874.021 1189C1201 1244.89 1546.03 1260 1723 1218" stroke="#7EAEFD"/>
<path opacity="0.589744" d="M1 889C186.323 963.667 520.464 1113.56 874.021 1174C1201 1229.89 1546.03 1245 1723 1203" stroke="#7EAEFD"/>
<path opacity="0.615385" d="M1 874C186.323 948.667 520.464 1098.56 874.021 1159C1201 1214.89 1546.03 1230 1723 1188" stroke="#7EAEFD"/>
<path opacity="0.641026" d="M1 859C186.323 933.667 520.464 1083.56 874.021 1144C1201 1199.89 1546.03 1215 1723 1173" stroke="#7EAEFD"/>
<path opacity="0.666667" d="M1 844C186.323 918.667 520.464 1068.56 874.021 1129C1201 1184.89 1546.03 1200 1723 1158" stroke="#7EAEFD"/>
<path opacity="0.692308" d="M1 829C186.323 903.667 520.464 1053.56 874.021 1114C1201 1169.89 1546.03 1185 1723 1143" stroke="#7EAEFD"/>
<path opacity="0.717949" d="M1 814C186.323 888.667 520.464 1038.56 874.021 1099C1201 1154.89 1546.03 1170 1723 1128" stroke="#7EAEFD"/>
<path opacity="0.74359" d="M1 799C186.323 873.667 520.464 1023.56 874.021 1084C1201 1139.89 1546.03 1155 1723 1113" stroke="#7EAEFD"/>
<path opacity="0.769231" d="M1 784C186.323 858.667 520.464 1008.56 874.021 1069C1201 1124.89 1546.03 1140 1723 1098" stroke="#7EAEFD"/>
<path opacity="0.794872" d="M1 769C186.323 843.667 520.464 993.563 874.021 1054C1201 1109.89 1546.03 1125 1723 1083" stroke="#7EAEFD"/>
<path opacity="0.820513" d="M1 754C186.323 828.667 520.464 978.563 874.021 1039C1201 1094.89 1546.03 1110 1723 1068" stroke="#7EAEFD"/>
<path opacity="0.846154" d="M1 739C186.323 813.667 520.464 963.563 874.021 1024C1201 1079.89 1546.03 1095 1723 1053" stroke="#7EAEFD"/>
<path opacity="0.871795" d="M1 724C186.323 798.667 520.464 948.563 874.021 1009C1201 1064.89 1546.03 1080 1723 1038" stroke="#7EAEFD"/>
<path opacity="0.897436" d="M1 709C186.323 783.667 520.464 933.563 874.021 994C1201 1049.89 1546.03 1065 1723 1023" stroke="#7EAEFD"/>
<path opacity="0.923077" d="M1 694C186.323 768.667 520.464 918.563 874.021 979C1201 1034.89 1546.03 1050 1723 1008" stroke="#7EAEFD"/>
<path opacity="0.948718" d="M1 679C186.323 753.667 520.464 903.563 874.021 964C1201 1019.89 1546.03 1035 1723 993" stroke="#7EAEFD"/>
<path opacity="0.974359" d="M1 664C186.323 738.667 520.464 888.563 874.021 949C1201 1004.89 1546.03 1020 1723 978" stroke="#7EAEFD"/>
<path d="M1 649C186.323 723.667 520.464 873.563 874.021 934C1201 989.894 1546.03 1005 1723 963" stroke="#7EAEFD"/>
<ellipse opacity="0.05" rx="35.945" ry="35.6152" transform="matrix(0.366797 -0.930301 0.930729 0.365708 522.614 157.536)" fill="#4285F4"/>
<ellipse opacity="0.1" cx="1449.47" cy="142.583" rx="36.1009" ry="35.5828" fill="#4285F4"/>
<ellipse opacity="0.1" cx="396.604" cy="761.176" rx="47.9822" ry="47.4437" fill="#4285F4"/>
</svg>
