<svg width="1807" height="1405" viewBox="0 0 1807 1405" fill="none" xmlns="http://www.w3.org/2000/svg">
<g opacity="0.5">
<path opacity="0.1" d="M1 944.518C279.392 1099.61 896.627 1408.69 1138.42 1404.28C1380.22 1399.88 1684.22 1250.11 1806 1175.78" stroke="#4B6BE6" stroke-width="0.5"/>
<path opacity="0.147368" d="M3.69141 924.333C281.392 1077.91 897.092 1383.97 1138.29 1379.61C1379.48 1375.25 1682.73 1226.94 1804.21 1153.34" stroke="#4B6BE6" stroke-width="0.578947"/>
<path opacity="0.194737" d="M5.48535 904.147C282.494 1056.21 896.66 1359.26 1137.26 1354.94C1377.85 1350.62 1680.34 1203.78 1801.51 1130.89" stroke="#4B6BE6" stroke-width="0.657895"/>
<path opacity="0.242105" d="M8.17773 883.962C284.495 1034.51 897.127 1334.55 1137.12 1330.27C1377.11 1325.99 1678.85 1180.61 1799.72 1108.45" stroke="#4B6BE6" stroke-width="0.736842"/>
<path opacity="0.289474" d="M9.97168 863.777C285.597 1012.82 896.695 1309.83 1136.09 1305.6C1375.48 1301.37 1676.46 1157.44 1797.03 1086.01" stroke="#4B6BE6" stroke-width="0.815789"/>
<path opacity="0.336842" d="M12.6621 843.592C287.595 991.117 897.16 1285.12 1135.95 1280.93C1374.74 1276.74 1674.97 1134.28 1795.23 1063.57" stroke="#4B6BE6" stroke-width="0.894737"/>
<path opacity="0.384211" d="M14.4561 823.407C288.698 969.419 896.728 1260.41 1134.92 1256.26C1373.11 1252.11 1672.58 1111.11 1792.54 1041.13" stroke="#4B6BE6" stroke-width="0.973684"/>
<path opacity="0.431579" d="M17.1475 803.222C290.697 947.721 897.194 1235.69 1134.78 1231.59C1372.37 1227.49 1671.09 1087.95 1790.75 1018.69" stroke="#4B6BE6" stroke-width="1.05263"/>
<path opacity="0.478947" d="M18.9424 783.037C291.8 926.023 896.763 1210.98 1133.75 1206.92C1370.74 1202.86 1668.7 1064.78 1788.06 996.247" stroke="#4B6BE6" stroke-width="1.13158"/>
<path opacity="0.526316" d="M21.6338 762.851C293.8 904.325 897.229 1186.27 1133.62 1182.25C1370.01 1178.23 1667.21 1041.61 1786.26 973.806" stroke="#4B6BE6" stroke-width="1.21053"/>
<path opacity="0.573684" d="M23.4277 742.666C294.902 882.627 896.797 1161.55 1132.58 1157.58C1368.37 1153.6 1664.82 1018.45 1783.57 951.365" stroke="#4B6BE6" stroke-width="1.28947"/>
<path opacity="0.621053" d="M26.1191 722.481C296.901 860.929 897.263 1136.84 1132.45 1132.91C1367.64 1128.98 1663.33 995.281 1781.78 928.924" stroke="#4B6BE6" stroke-width="1.36842"/>
<path opacity="0.668421" d="M27.9141 702.296C298.005 839.231 896.832 1112.13 1131.42 1108.24C1366 1104.35 1660.94 972.114 1779.09 906.482" stroke="#4B6BE6" stroke-width="1.44737"/>
<path opacity="0.715789" d="M30.6045 682.111C300.003 817.533 897.297 1087.41 1131.28 1083.57C1365.27 1079.72 1659.45 948.948 1777.29 884.041" stroke="#4B6BE6" stroke-width="1.52632"/>
<path opacity="0.763158" d="M32.3984 661.926C301.105 795.835 896.865 1062.7 1130.25 1058.9C1363.63 1055.09 1657.06 925.782 1774.6 861.6" stroke="#4B6BE6" stroke-width="1.60526"/>
<path opacity="0.810526" d="M35.0898 641.741C303.105 774.137 897.331 1037.99 1130.11 1034.23C1362.9 1030.47 1655.57 902.615 1772.81 839.159" stroke="#4B6BE6" stroke-width="1.68421"/>
<path opacity="0.857895" d="M36.8848 621.555C304.208 752.438 896.9 1013.27 1129.08 1009.56C1361.26 1005.84 1653.18 879.449 1770.12 816.718" stroke="#4B6BE6" stroke-width="1.76316"/>
<path opacity="0.905263" d="M39.5762 601.37C306.207 730.74 897.366 988.562 1128.95 984.887C1360.53 981.213 1651.69 856.283 1768.32 794.277" stroke="#4B6BE6" stroke-width="1.84211"/>
<path opacity="0.952632" d="M41.3701 581.185C307.31 709.042 896.934 963.848 1127.91 960.217C1358.89 956.585 1649.3 833.116 1765.63 771.836" stroke="#4B6BE6" stroke-width="1.92105"/>
<path d="M44.0615 561C309.309 687.344 897.4 939.135 1127.78 935.546C1358.16 931.958 1647.81 809.95 1763.84 749.395" stroke="#4B6BE6" stroke-width="2"/>
</g>
<ellipse opacity="0.05" cx="565.694" cy="50.5358" rx="35.9367" ry="35.5623" transform="rotate(-68.5153 565.694 50.5358)" fill="#4285F4"/>
<ellipse opacity="0.1" cx="1490.96" cy="35.5828" rx="36.039" ry="35.5828" fill="#4285F4"/>
<ellipse opacity="0.1" cx="439.9" cy="654.176" rx="47.8999" ry="47.4437" fill="#4285F4"/>
</svg>
