<svg width="1721" height="1573" viewBox="0 0 1721 1573" fill="none" xmlns="http://www.w3.org/2000/svg">
<rect x="1" width="1720" height="1556" fill="#F4F7FC"/>
<path opacity="0.025641" d="M1 1219C186 1293.67 519.559 1443.56 872.5 1504C1198.91 1559.89 1543.33 1575 1720 1533" stroke="#7EAEFD"/>
<path opacity="0.0512821" d="M1 1204C186 1278.67 519.559 1428.56 872.5 1489C1198.91 1544.89 1543.33 1560 1720 1518" stroke="#7EAEFD"/>
<path opacity="0.0769231" d="M1 1189C186 1263.67 519.559 1413.56 872.5 1474C1198.91 1529.89 1543.33 1545 1720 1503" stroke="#7EAEFD"/>
<path opacity="0.102564" d="M1 1174C186 1248.67 519.559 1398.56 872.5 1459C1198.91 1514.89 1543.33 1530 1720 1488" stroke="#7EAEFD"/>
<path opacity="0.128205" d="M1 1159C186 1233.67 519.559 1383.56 872.5 1444C1198.91 1499.89 1543.33 1515 1720 1473" stroke="#7EAEFD"/>
<path opacity="0.153846" d="M1 1144C186 1218.67 519.559 1368.56 872.5 1429C1198.91 1484.89 1543.33 1500 1720 1458" stroke="#7EAEFD"/>
<path opacity="0.179487" d="M1 1129C186 1203.67 519.559 1353.56 872.5 1414C1198.91 1469.89 1543.33 1485 1720 1443" stroke="#7EAEFD"/>
<path opacity="0.205128" d="M1 1114C186 1188.67 519.559 1338.56 872.5 1399C1198.91 1454.89 1543.33 1470 1720 1428" stroke="#7EAEFD"/>
<path opacity="0.230769" d="M1 1099C186 1173.67 519.559 1323.56 872.5 1384C1198.91 1439.89 1543.33 1455 1720 1413" stroke="#7EAEFD"/>
<path opacity="0.25641" d="M1 1084C186 1158.67 519.559 1308.56 872.5 1369C1198.91 1424.89 1543.33 1440 1720 1398" stroke="#7EAEFD"/>
<path opacity="0.282051" d="M1 1069C186 1143.67 519.559 1293.56 872.5 1354C1198.91 1409.89 1543.33 1425 1720 1383" stroke="#7EAEFD"/>
<path opacity="0.307692" d="M1 1054C186 1128.67 519.559 1278.56 872.5 1339C1198.91 1394.89 1543.33 1410 1720 1368" stroke="#7EAEFD"/>
<path opacity="0.333333" d="M1 1039C186 1113.67 519.559 1263.56 872.5 1324C1198.91 1379.89 1543.33 1395 1720 1353" stroke="#7EAEFD"/>
<path opacity="0.358974" d="M1 1024C186 1098.67 519.559 1248.56 872.5 1309C1198.91 1364.89 1543.33 1380 1720 1338" stroke="#7EAEFD"/>
<path opacity="0.384615" d="M1 1009C186 1083.67 519.559 1233.56 872.5 1294C1198.91 1349.89 1543.33 1365 1720 1323" stroke="#7EAEFD"/>
<path opacity="0.410256" d="M1 994C186 1068.67 519.559 1218.56 872.5 1279C1198.91 1334.89 1543.33 1350 1720 1308" stroke="#7EAEFD"/>
<path opacity="0.435897" d="M1 979C186 1053.67 519.559 1203.56 872.5 1264C1198.91 1319.89 1543.33 1335 1720 1293" stroke="#7EAEFD"/>
<path opacity="0.461538" d="M1 964C186 1038.67 519.559 1188.56 872.5 1249C1198.91 1304.89 1543.33 1320 1720 1278" stroke="#7EAEFD"/>
<path opacity="0.487179" d="M1 949C186 1023.67 519.559 1173.56 872.5 1234C1198.91 1289.89 1543.33 1305 1720 1263" stroke="#7EAEFD"/>
<path opacity="0.512821" d="M1 934C186 1008.67 519.559 1158.56 872.5 1219C1198.91 1274.89 1543.33 1290 1720 1248" stroke="#7EAEFD"/>
<path opacity="0.538462" d="M1 919C186 993.667 519.559 1143.56 872.5 1204C1198.91 1259.89 1543.33 1275 1720 1233" stroke="#7EAEFD"/>
<path opacity="0.564103" d="M1 904C186 978.667 519.559 1128.56 872.5 1189C1198.91 1244.89 1543.33 1260 1720 1218" stroke="#7EAEFD"/>
<path opacity="0.589744" d="M1 889C186 963.667 519.559 1113.56 872.5 1174C1198.91 1229.89 1543.33 1245 1720 1203" stroke="#7EAEFD"/>
<path opacity="0.615385" d="M1 874C186 948.667 519.559 1098.56 872.5 1159C1198.91 1214.89 1543.33 1230 1720 1188" stroke="#7EAEFD"/>
<path opacity="0.641026" d="M1 859C186 933.667 519.559 1083.56 872.5 1144C1198.91 1199.89 1543.33 1215 1720 1173" stroke="#7EAEFD"/>
<path opacity="0.666667" d="M1 844C186 918.667 519.559 1068.56 872.5 1129C1198.91 1184.89 1543.33 1200 1720 1158" stroke="#7EAEFD"/>
<path opacity="0.692308" d="M1 829C186 903.667 519.559 1053.56 872.5 1114C1198.91 1169.89 1543.33 1185 1720 1143" stroke="#7EAEFD"/>
<path opacity="0.717949" d="M1 814C186 888.667 519.559 1038.56 872.5 1099C1198.91 1154.89 1543.33 1170 1720 1128" stroke="#7EAEFD"/>
<path opacity="0.74359" d="M1 799C186 873.667 519.559 1023.56 872.5 1084C1198.91 1139.89 1543.33 1155 1720 1113" stroke="#7EAEFD"/>
<path opacity="0.769231" d="M1 784C186 858.667 519.559 1008.56 872.5 1069C1198.91 1124.89 1543.33 1140 1720 1098" stroke="#7EAEFD"/>
<path opacity="0.794872" d="M1 769C186 843.667 519.559 993.563 872.5 1054C1198.91 1109.89 1543.33 1125 1720 1083" stroke="#7EAEFD"/>
<path opacity="0.820513" d="M1 754C186 828.667 519.559 978.563 872.5 1039C1198.91 1094.89 1543.33 1110 1720 1068" stroke="#7EAEFD"/>
<path opacity="0.846154" d="M1 739C186 813.667 519.559 963.563 872.5 1024C1198.91 1079.89 1543.33 1095 1720 1053" stroke="#7EAEFD"/>
<path opacity="0.871795" d="M1 724C186 798.667 519.559 948.563 872.5 1009C1198.91 1064.89 1543.33 1080 1720 1038" stroke="#7EAEFD"/>
<path opacity="0.897436" d="M1 709C186 783.667 519.559 933.563 872.5 994C1198.91 1049.89 1543.33 1065 1720 1023" stroke="#7EAEFD"/>
<path opacity="0.923077" d="M1 694C186 768.667 519.559 918.563 872.5 979C1198.91 1034.89 1543.33 1050 1720 1008" stroke="#7EAEFD"/>
<path opacity="0.948718" d="M1 679C186 753.667 519.559 903.563 872.5 964C1198.91 1019.89 1543.33 1035 1720 993" stroke="#7EAEFD"/>
<path opacity="0.974359" d="M1 664C186 738.667 519.559 888.563 872.5 949C1198.91 1004.89 1543.33 1020 1720 978" stroke="#7EAEFD"/>
<path d="M1 649C186 723.667 519.559 873.563 872.5 934C1198.91 989.894 1543.33 1005 1720 963" stroke="#7EAEFD"/>
<ellipse opacity="0.05" rx="35.9393" ry="35.5794" transform="matrix(0.366428 -0.930446 0.930585 0.366077 522.007 157.536)" fill="#4285F4"/>
<ellipse opacity="0.1" cx="1447.79" cy="142.583" rx="36.059" ry="35.5828" fill="#4285F4"/>
<ellipse opacity="0.1" cx="396.144" cy="761.176" rx="47.9265" ry="47.4437" fill="#4285F4"/>
</svg>
